<?xml version="1.0" encoding="utf-8"?>
<!-- Generator: Adobe Illustrator 22.0.0, SVG Export Plug-In . SVG Version: 6.00 Build 0)  -->
<!DOCTYPE svg PUBLIC "-//W3C//DTD SVG 1.1//EN" "http://www.w3.org/Graphics/SVG/1.1/DTD/svg11.dtd">
<svg version="1.1" id="Layer_1" xmlns="http://www.w3.org/2000/svg" xmlns:xlink="http://www.w3.org/1999/xlink" x="0px" y="0px"
	 viewBox="0 0 1800 1800" style="enable-background:new 0 0 1800 1800;" xml:space="preserve">
<style type="text/css">
	.st0{fill:#FFFFFF;}
</style>
<g>
	<g>
		<path class="st0" d="M1575.2,553.5c-31.1-73.6-75.6-139.7-132.4-196.4c-56.7-56.7-122.9-101.3-196.4-132.4
			c-76.2-32.2-157.3-48.5-240.6-48.5s-164.4,16.4-240.6,48.5c-73.6,31.1-139.7,75.6-196.4,132.4C512,413.8,467.4,479.9,436.3,553.5
			c-32.2,76.2-48.5,157.3-48.5,240.6s16.4,164.4,48.5,240.6c19.5,46,44.2,89,73.9,128.8l-307.8,307.8c-34.8,34.8-34.8,91.4,0,126.3
			c17.4,17.4,40.2,26.2,63.1,26.2s45.7-8.8,63.1-26.2l307.8-308c39.6,29.6,82.8,54.4,128.8,73.9c76.2,32.2,157.1,48.5,240.5,48.5
			s164.4-16.4,240.6-48.5c73.6-31.1,139.7-75.6,196.4-132.4c56.7-56.7,101.3-122.9,132.4-196.4c32.2-76.4,48.5-157.3,48.5-240.6
			S1607.4,629.7,1575.2,553.5z M1239.6,585.9c0,0.3,0,0.7,0,1l0,0c0,0.4,0,0.7-0.1,1.2v0.1c0,0.1,0,0.6-0.1,0.7c0,0.1,0,0.3,0,0.4
			c0,0.3-0.1,0.6-0.1,0.9v0.1c0,0.3-0.1,0.6-0.1,1c0,0.1-0.1,0.3-0.1,0.4c0,0.1-0.1,0.3-0.1,0.4c0,0.1-0.1,0.4-0.1,0.6
			s0,0.1-0.1,0.3c-0.1,0.3-0.1,0.6-0.3,0.7L1060,1103c-3.4,9.8-12.5,16.5-22.9,17c-0.3,0-0.7,0-1,0c-10,0-19.2-6-23.2-15l0,0
			C949.8,963.3,836.5,850,694.8,787l0,0c-9.5-4.2-15.5-13.8-15-24.3c0.4-10.4,7.1-19.5,17-22.9l508.7-178c0.3-0.1,0.6-0.3,1-0.3h0.1
			c0.1,0,0.4-0.1,0.6-0.1c0.1,0,0.3-0.1,0.4-0.1c0.1,0,0.3-0.1,0.6-0.1c0.3-0.1,0.6-0.1,1-0.1c0.1,0,0.1,0,0.3,0
			c0.3,0,0.6-0.1,0.9-0.1c0.1,0,0.1,0,0.3,0c0.3,0,0.6-0.1,1-0.1h0.1c0.7,0,1.5-0.1,2.4-0.1h0.1c0.7,0,1.5,0,2.4,0.1h0.1
			c0.3,0,0.6,0,0.9,0.1c0.1,0,0.1,0,0.3,0c0.3,0,0.7,0.1,1,0.1c0.1,0,0.1,0,0.3,0c0.3,0,0.4,0.1,0.7,0.1c0.1,0,0.3,0.1,0.4,0.1
			c0.1,0,0.3,0.1,0.6,0.1c0.7,0.1,1.3,0.4,1.9,0.6c0.1,0,0.1,0,0.3,0.1c0.3,0.1,0.4,0.1,0.7,0.3c0,0,0,0,0.1,0
			c0.4,0.1,0.7,0.1,1,0.4c0.1,0.1,0.3,0.1,0.4,0.3c0.3,0.1,0.4,0.3,0.6,0.3l0.1,0.1c0.4,0.1,0.7,0.4,1.2,0.6c0.1,0,0.1,0.1,0.3,0.1
			c0.1,0.1,0.3,0.3,0.4,0.3c0.1,0.1,0.3,0.1,0.4,0.3c0.1,0.1,0.3,0.1,0.4,0.3c0.3,0.1,0.6,0.4,0.7,0.6c0.1,0,0.1,0.1,0.3,0.1
			c0.1,0.1,0.4,0.3,0.6,0.6c0.1,0.1,0.1,0.1,0.3,0.3c0.3,0.3,0.6,0.6,0.9,0.7c0.3,0.3,0.6,0.6,0.7,0.9c0.1,0.1,0.1,0.1,0.3,0.3
			c0.1,0.1,0.3,0.4,0.6,0.6c0,0.1,0.1,0.1,0.1,0.3c0.1,0.3,0.4,0.6,0.6,0.7c0.1,0.1,0.1,0.3,0.3,0.4c0.1,0.1,0.1,0.3,0.3,0.4
			c0.1,0.1,0.3,0.3,0.3,0.4c0,0.1,0.1,0.1,0.1,0.3c0.1,0.3,0.4,0.6,0.6,0.9c0,0.1,0.1,0.3,0.1,0.3c0.1,0.3,0.3,0.4,0.3,0.7v0.1
			c0.3,0.7,0.7,1.5,1,2.2c0,0.1,0,0.1,0.1,0.3c0.3,0.7,0.4,1.3,0.7,2.1c0,0.1,0.1,0.3,0.1,0.4c0,0.1,0.1,0.4,0.1,0.6
			s0.1,0.4,0.1,0.6c0,0.1,0.1,0.3,0.1,0.6s0.1,0.6,0.1,0.9c0,0.1,0,0.3,0,0.3c0,0.3,0,0.6,0.1,0.7c0,0.1,0,0.1,0,0.3
			c0,0.3,0,0.7,0.1,1.2l0,0c0,0.3,0,0.7,0,1C1239.6,585.8,1239.6,585.8,1239.6,585.9z"/>
	</g>
</g>
</svg>
